<svg xmlns="http://www.w3.org/2000/svg" xmlns:xlink="http://www.w3.org/1999/xlink"><defs><style>.cls-1{fill:#696c7c}</style><style>.cls-1{fill:#fff}</style><style>.cls-1{fill:#19224f}</style><style>.cls-1{fill:#fff}</style><style>.cls-1{fill:none}.cls-2{clip-path:url(#clip-path)}.cls-3{clip-path:url(#clip-path-2)}.cls-4{fill:#19224f}</style><clipPath id="MarianUniversityLogo-clip-path"><path class="cls-1" d="M0 0h400v63.61H0z"/></clipPath><clipPath id="MarianUniversityLogo-clip-path-2"><path class="cls-1" d="M0 0h400v63.61H0z"/></clipPath><style>.cls-1{fill:#f7911d}</style></defs><symbol viewBox="0 0 11.71 5.85" id="arrow-down"><title>arrow-down</title><g id="arrow-down-Layer_2" data-name="Layer 2"><path class="cls-1" d="M0 0h11.71L5.85 5.85 0 0z" id="arrow-down-Layer_1-2" data-name="Layer 1"/></g></symbol><symbol viewBox="0 0 8.72 17.44" id="Arrow-white"><title>Arrow-white</title><g id="Arrow-white-Layer_2" data-name="Layer 2"><path class="cls-1" d="M0 17.44V0l8.72 8.72L0 17.44z" id="Arrow-white-Layer_1-2" data-name="Layer 1"/></g></symbol><symbol viewBox="0 0 8.72 17.44" id="Arrow"><title>Arrow</title><g id="Arrow-Layer_2" data-name="Layer 2"><path class="cls-1" d="M0 17.44V0l8.72 8.72L0 17.44z" id="Arrow-Layer_1-2" data-name="Layer 1"/></g></symbol><symbol viewBox="0 0 32.82 45" id="BacktoBeginning"><title>BacktoBeginning</title><g id="BacktoBeginning-Layer_2" data-name="Layer 2"><g id="BacktoBeginning-NAV"><path class="cls-1" d="M32.82 45l-22.5-22.5L32.82 0v45zM0 0h5v45H0z"/></g></g></symbol><symbol viewBox="0 0 400 63.61" id="MarianUniversityLogo"><title>MarianUniversityLogo</title><g id="MarianUniversityLogo-Layer_2" data-name="Layer 2"><g class="cls-2" id="MarianUniversityLogo-NAV"><g class="cls-3"><path class="cls-4" d="M28.25 32.71V31.1c3.93-.4 4.13-.75 4.13-5.64l-.15-19.77H32L20.5 32.36h-1.31L8.58 6.24h-.16l-.65 13.59A63.38 63.38 0 0 0 7.72 28c.15 2.32 1.21 2.72 4.58 3v1.66H.32v-1.61c2.87-.25 3.83-1.05 4.13-2.92a90.07 90.07 0 0 0 1.06-9.41l.75-10.11c.45-6 .1-6.54-4.33-6.95V0h9.66l10.32 23.15L32.43 0H42v1.66c-4.18.4-4.43.65-4.33 5.23l.5 18.57c.1 4.88.3 5.23 4.43 5.64v1.61zM58.25 32.71V31.5c2.27-.34 2.49-.75 2-2.34-.41-1.25-1.06-3-1.73-4.83H51c-.49 1.4-1 2.83-1.47 4.34-.64 2-.45 2.49 2.3 2.83v1.21h-8.38V31.5c2.45-.34 2.95-.68 4.23-3.93l7.74-19.51 1.66-.45c2.42 6.57 4.79 13.39 7.25 19.86 1.25 3.32 1.73 3.74 4.15 4v1.21zm-3.4-18.91h-.11c-1.09 2.91-2.11 5.85-3.17 8.68h6.27zM93.46 33.05h-1.17c-4.08-.19-5.59-1.17-7.17-3.59-1.1-1.66-2.27-3.81-3.36-5.74A2.64 2.64 0 0 0 79 22.11h-.87v5.7c0 3.1.34 3.43 3.25 3.7v1.21H70.51V31.5c2.91-.27 3.32-.57 3.32-3.7V13c0-3.1-.34-3.4-3.17-3.62v-1.2h10.16c3.1 0 5 .38 6.49 1.36a5.77 5.77 0 0 1 2.53 5c0 3.28-2.15 5.13-4.76 6.23.6 1.17 2 3.7 3.17 5.4a25.65 25.65 0 0 0 3 4 5.1 5.1 0 0 0 2.45 1.7zM79.38 20.71a5.87 5.87 0 0 0 3.85-1 5.53 5.53 0 0 0 1.89-4.57c0-4-2.42-5.55-4.83-5.55a3.28 3.28 0 0 0-1.81.38c-.26.23-.34.64-.34 1.51v9.25zM95 32.71V31.5c2.91-.26 3.25-.49 3.25-3.7V13.12c0-3.21-.34-3.47-3.25-3.7V8.18h10.8v1.24c-2.91.23-3.21.49-3.21 3.7v14.69c0 3.17.3 3.43 3.21 3.7v1.21zM121.39 32.71V31.5c2.27-.34 2.49-.75 2-2.34-.42-1.25-1.06-3-1.74-4.83h-7.55c-.49 1.4-1 2.83-1.47 4.34-.64 2-.45 2.49 2.3 2.83v1.21h-8.34V31.5c2.45-.34 2.95-.68 4.23-3.93l7.74-19.51 1.66-.45c2.42 6.57 4.79 13.36 7.25 19.85 1.25 3.32 1.73 3.74 4.15 4v1.21zM118 13.8h-.11c-1.09 2.91-2.11 5.85-3.17 8.68H121zM159.54 9.39c-2 .11-2.87.64-3.06 2.34a47.63 47.63 0 0 0-.3 6.3v15.06h-1.58l-15.86-19.18h-.08v8.87a57.48 57.48 0 0 0 .26 6.19c.19 1.77.91 2.38 3.62 2.53v1.21h-9.13V31.5c2.11-.15 3-.72 3.21-2.42a57.65 57.65 0 0 0 .3-6.3v-8c0-2.57 0-3.09-.75-4s-1.55-1.25-3.25-1.4v-1.2h6.49l14.91 17.4h.11V18c0-3.4-.19-5.17-.27-6.27-.23-1.62-1-2.23-3.74-2.38V8.18h9.1zM205.58 1.66c-2.87.15-4.08 1.06-4.33 3a53.45 53.45 0 0 0-.35 7.4v5c0 5.54-.86 9.81-3.73 12.83a12.71 12.71 0 0 1-9.17 3.58 14 14 0 0 1-8.64-2.47c-2.87-2.27-4.28-6-4.28-11.88V6.95c0-4.68-.45-4.93-4.28-5.29V0h14.4v1.66c-3.77.3-4.23.6-4.23 5.29v11.12c0 7.75 2.87 12.23 8.61 12.23 6.44 0 9-5.08 9-13.49V12a51.72 51.72 0 0 0-.45-7.5c-.3-1.81-1.41-2.67-4.88-2.87V0h12.38zM232.07 9.39c-2 .11-2.87.64-3.05 2.34a47.3 47.3 0 0 0-.3 6.3v15.06h-1.59l-15.86-19.18h-.07v8.87a59 59 0 0 0 .26 6.19c.19 1.77.91 2.38 3.63 2.53v1.21h-9.14V31.5c2.11-.15 3-.72 3.21-2.42a57.65 57.65 0 0 0 .3-6.3v-8c0-2.57 0-3.09-.75-4s-1.55-1.25-3.25-1.4v-1.2h6.49l14.91 17.4h.14V18c0-3.4-.19-5.17-.27-6.27-.22-1.62-1-2.23-3.74-2.38V8.18h9.1zM234.21 32.71V31.5c2.91-.26 3.25-.49 3.25-3.7V13.12c0-3.21-.34-3.47-3.25-3.7V8.18H245v1.24c-2.91.23-3.21.49-3.21 3.7v14.69c0 3.17.3 3.43 3.21 3.7v1.21zM272.82 9.42c-2.49.3-3.13.72-4.6 4.23-1.17 2.75-4.79 11.66-7.7 19.48h-1.62c-2.57-6.91-6-15.66-7.74-20.16-1.13-2.87-1.74-3.32-4-3.55V8.18h10.53v1.24c-2.76.38-2.79.75-2.19 2.38 1.05 2.91 3.92 10.42 5.74 15h.07c2-5.21 4.08-10.64 5.17-14.12.83-2.45.72-2.91-2.34-3.28V8.18h8.72zM294.45 26.56c-.23 1.51-1 5-1.32 6.15h-18.88V31.5c3.29-.27 3.62-.53 3.62-3.7V13.12c0-3.32-.34-3.47-3.09-3.7V8.18h17.4c0 .75.23 3.4.38 5.59l-1.28.19a7.9 7.9 0 0 0-1.4-3.25c-.6-.72-1.62-1-4-1h-2.19c-1.32 0-1.44.08-1.44 1.28v8.21h2.91c3.24 0 3.62-.23 4.11-2.83h1.28v7.47h-1.28c-.49-2.72-.87-2.87-4.11-2.87h-2.91v6.72c0 1.81.19 2.68.91 3.1a8.79 8.79 0 0 0 3.55.41c2.3 0 3.55-.26 4.42-1.24a12.56 12.56 0 0 0 2-3.62zM319.28 33.05h-1.17c-4.08-.19-5.59-1.17-7.17-3.59-1.1-1.66-2.26-3.81-3.36-5.74a2.65 2.65 0 0 0-2.76-1.59H304v5.7c0 3.1.34 3.43 3.25 3.7v1.21h-10.92V31.5c2.91-.27 3.32-.57 3.32-3.7V13c0-3.1-.34-3.4-3.17-3.62v-1.2h10.16c3.09 0 5 .38 6.49 1.36a5.76 5.76 0 0 1 2.52 5c0 3.28-2.15 5.13-4.75 6.23.6 1.17 2 3.7 3.17 5.4a25.39 25.39 0 0 0 3 4 5.08 5.08 0 0 0 2.45 1.7zM305.2 20.71a5.88 5.88 0 0 0 3.85-1 5.53 5.53 0 0 0 1.89-4.57c0-4-2.42-5.55-4.83-5.55a3.29 3.29 0 0 0-1.81.38c-.26.23-.34.64-.34 1.51v9.25zM334.37 14.18c-.75-2.38-2-5.1-5.17-5.1a3.71 3.71 0 0 0-3.85 3.85c0 2.34 1.55 3.59 4.76 5.17 3.59 1.81 6.61 3.77 6.61 7.7 0 4.19-3.55 7.47-8.91 7.47a11.94 11.94 0 0 1-3.74-.57 13.49 13.49 0 0 1-2.15-.79 45.38 45.38 0 0 1-1.1-6.19l1.29-.38c.68 2.38 2.72 6.45 6.42 6.45a3.86 3.86 0 0 0 4.08-4.19c0-2.42-1.81-3.81-4.64-5.28-3.36-1.74-6.45-3.74-6.45-7.59s3.13-7.13 8.3-7.13a16.93 16.93 0 0 1 5.1.94c.15 1.4.38 3 .68 5.36zM338.94 32.71V31.5c2.91-.26 3.25-.49 3.25-3.7V13.12c0-3.21-.34-3.47-3.25-3.7V8.18h10.83v1.24c-2.91.23-3.21.49-3.21 3.7v14.69c0 3.17.3 3.43 3.21 3.7v1.21zM372.9 14.41a9 9 0 0 0-1.47-3.7c-.68-.75-1.51-1-4-1h-2V27.8c0 3.13.34 3.43 3.78 3.7v1.21h-11.78V31.5c3.25-.27 3.62-.57 3.62-3.7V9.72h-1.7c-3.1 0-3.81.34-4.34 1.06a9.4 9.4 0 0 0-1.43 3.66h-1.28c.15-2.57.38-5.25.45-7.21h.87c.57.87 1.06.94 2.11.94h15.1a2.34 2.34 0 0 0 2.07-.94h.87c0 1.62.19 4.75.38 7.09zM400 9.42c-2.5.26-3.13.83-4.53 3.09-1.51 2.42-2.6 4.23-4.41 7.7a4.35 4.35 0 0 0-.68 2.53v4.95c0 3.32.3 3.55 3.7 3.81v1.21h-11.67V31.5c3.25-.23 3.58-.49 3.58-3.81V23.2a4 4 0 0 0-.6-2.15c-1.13-2.15-2.53-4.64-4.68-8.45-1.47-2.53-2-2.91-4.15-3.17V8.18h10.12v1.24c-2.53.34-2.49.79-1.81 2.11 1.44 2.75 3.06 5.66 4.61 8.45 1.21-2.27 3.17-5.85 4.11-8.15.72-1.66.64-2.11-2.19-2.42V8.18h8.6zM0 54.37h103.51v.9H0zM296.16 54.37h85.98v.9h-85.98zM113.01 45.65h3.36v14.36h-3.36zM130.6 60v-6a3.7 3.7 0 0 0-.19-1.75 1.19 1.19 0 0 0-1.14-.69c-1.08 0-1.66.86-1.66 2.44v6h-3.12V49.4h2.91v1.79c.9-1.55 1.61-2 3.1-2a3.15 3.15 0 0 1 2.52 1 4.6 4.6 0 0 1 .71 3V60zM150.72 60h-2.91v-1.64a3.07 3.07 0 0 1-2.91 1.87c-2.37 0-3.79-2-3.79-5.41 0-3.59 1.42-5.64 4-5.64a2.83 2.83 0 0 1 2.61 1.33v-4.86h3zm-3-6.16c0-1.66-.54-2.5-1.55-2.5-1.18 0-1.77 1.16-1.77 3.51 0 2 .58 3.15 1.66 3.15s1.66-.89 1.66-2.18zM161.83 48.5h-3.12v-3.13h3.12zm0 11.52h-3.12V49.4h3.12zM176 60a5.65 5.65 0 0 1-.15-1.38 1.81 1.81 0 0 1 0-.28 3.7 3.7 0 0 1-3.4 1.87c-2 0-3.34-1.16-3.34-3a3.3 3.3 0 0 1 2.37-3.21 16 16 0 0 1 4.22-.67v-.6a1.38 1.38 0 0 0-1.57-1.55 1.65 1.65 0 0 0-1.81 1.55l-2.89-.28a3.22 3.22 0 0 1 1.21-2.24 6.18 6.18 0 0 1 3.79-1.07 4.93 4.93 0 0 1 3.81 1.33c.45.58.58 1.14.58 2.71V58a5.14 5.14 0 0 0 .19 2zm-.28-5.08a7.13 7.13 0 0 0-1.89.37c-.93.3-1.4.84-1.4 1.61a1.28 1.28 0 0 0 1.33 1.36 2.15 2.15 0 0 0 2-2.37zM193 60v-6a3.7 3.7 0 0 0-.19-1.75 1.19 1.19 0 0 0-1.14-.69c-1.08 0-1.66.86-1.66 2.44v6h-3.12V49.4h2.91v1.79c.9-1.55 1.61-2 3.1-2a3.15 3.15 0 0 1 2.52 1 4.6 4.6 0 0 1 .71 3V60zM210.28 60a5.65 5.65 0 0 1-.15-1.38 1.81 1.81 0 0 1 0-.28 3.7 3.7 0 0 1-3.4 1.87c-2 0-3.34-1.16-3.34-3a3.31 3.31 0 0 1 2.37-3.21 16 16 0 0 1 4.22-.67v-.6a1.38 1.38 0 0 0-1.57-1.55 1.65 1.65 0 0 0-1.81 1.55l-2.89-.28a3.22 3.22 0 0 1 1.21-2.24 6.19 6.19 0 0 1 3.79-1.07 4.92 4.92 0 0 1 3.81 1.33c.46.58.58 1.14.58 2.71V58a5.18 5.18 0 0 0 .19 2zm-.28-5.07a7.13 7.13 0 0 0-1.89.37c-.93.3-1.4.84-1.4 1.61a1.28 1.28 0 0 0 1.29 1.36 2.15 2.15 0 0 0 2-2.37zM221.11 49.4H224v1.55a2.79 2.79 0 0 1 2.8-1.76c2.46 0 3.92 2 3.92 5.47s-1.49 5.58-4 5.58a2.68 2.68 0 0 1-2.56-1.38v4.76h-3zm3 6c0 1.16 0 1.51.3 1.89a1.73 1.73 0 0 0 1.36.78 1.44 1.44 0 0 0 1.23-.8 5.34 5.34 0 0 0 .43-2.63c0-2.22-.54-3.25-1.66-3.25s-1.66.9-1.66 2.43zM247.67 54.74c0 3.25-2.11 5.49-5.15 5.49a4.54 4.54 0 0 1-3.71-1.62 5.8 5.8 0 0 1-1.31-4c0-3.25 2-5.45 5-5.45s5.15 2.19 5.15 5.56m-6.87-.31c0 2.65.52 3.75 1.79 3.75s1.79-1 1.79-3.38c0-2.59-.49-3.57-1.76-3.57s-1.81.95-1.81 3.21M255.03 45.65h3.12v14.36h-3.12zM269.26 48.5h-3.12v-3.13h3.12zm0 11.52h-3.12V49.4h3.12zM282.91 52.59a1.89 1.89 0 0 0-2.07-1.44c-1 0-1.57.36-1.57.95s.39.82 1.79 1a8.46 8.46 0 0 1 3.23.82 2.92 2.92 0 0 1 1.36 2.65c0 2.26-1.83 3.69-4.78 3.69a5 5 0 0 1-3.78-1.26 3.37 3.37 0 0 1-1-1.88l2.65-.36c.26.95 1 1.42 2.33 1.42 1.12 0 1.87-.44 1.87-1.06s-.34-.73-1.18-.86a16.67 16.67 0 0 1-3.6-.79 3 3 0 0 1-1.66-2.76c0-2.13 1.77-3.49 4.5-3.49 2.24 0 3.45.79 4.22 2.78zM397.27 52.66a5.56 5.56 0 1 1-5.48-5.55 5.56 5.56 0 0 1 5.48 5.55m-9.11-3.18a4.77 4.77 0 1 0 3.62-1.58 4.7 4.7 0 0 0-3.62 1.58m5.11 6.43L392 53.16h-1.78v2.75h-1v-6.46H392a2 2 0 0 1 2.19 1.84A1.72 1.72 0 0 1 393 53l1.34 3zm-1.34-3.5c.81 0 1.29-.43 1.29-1.13s-.45-1-1.18-1h-1.78v2.15z"/></g></g></g></symbol><symbol viewBox="0 0 19.92 20" id="newWindow"><title>newWindow</title><g id="newWindow-Layer_2" data-name="Layer 2"><g id="newWindow-Layer_1-2" data-name="Layer 1"><path class="cls-1" d="M17.33 10.76a1.16 1.16 0 0 0-1.16 1.16v5.31a.46.46 0 0 1-.46.46H2.77a.46.46 0 0 1-.46-.46V4.29a.46.46 0 0 1 .46-.46h5.32a1.16 1.16 0 0 0 0-2.31H.5A.5.5 0 0 0 0 2v17.5a.5.5 0 0 0 .5.5H18a.5.5 0 0 0 .5-.5v-7.59a1.16 1.16 0 0 0-1.17-1.15z"/><path class="cls-1" d="M19.89.59a.51.51 0 0 0-.5-.51L13 0a.82.82 0 0 0-.83.85v.31a.82.82 0 0 0 .8.8l3.58.1L11 7.56a.8.8 0 0 0 0 1.13l.25.25a.8.8 0 0 0 1.13 0l5.55-5.5L18 7a.82.82 0 0 0 .79.81h.31a.82.82 0 0 0 .82-.81z"/></g></g></symbol></svg>