<svg id="Layer_1" data-name="Layer 1" xmlns="http://www.w3.org/2000/svg" viewBox="0 0 215.38 34.25"><defs><style>.cls-1{fill:#002d6a;}</style></defs><title>MU_logo_cmyk_R</title><path class="cls-1" d="M15.24,17.61v-.86c2.09-.22,2.22-.41,2.2-3L17.38,3.06h-.13L11,17.42h-.68L4.64,3.36h-.1l-.36,7.32a35.43,35.43,0,0,0,0,4.41c.08,1.25.65,1.47,2.46,1.63v.89H.17v-.89c1.55-.14,2.06-.57,2.25-1.57A40.53,40.53,0,0,0,3,10.08l.41-5.45c.25-3.25.06-3.55-2.3-3.76V0H6.24L11.8,12.46,17.46,0h5.15V.87c-2.25.21-2.36.38-2.3,2.82l.24,10c.08,2.63.19,2.82,2.39,3v.86Z"/><path class="cls-1" d="M31.37,17.61V17c1.22-.18,1.36-.4,1.05-1.26-.22-.67-.57-1.62-.93-2.6h-4c-.26.73-.54,1.53-.79,2.34-.34,1.1-.24,1.34,1.24,1.52v.65H23.4V17c1.32-.16,1.59-.36,2.28-2.11L29.86,4.34l.9-.24c1.28,3.53,2.56,7.19,3.88,10.69.67,1.79.93,2,2.24,2.17v.65ZM29.54,7.43h0c-.61,1.57-1.16,3.15-1.73,4.68h3.39Z"/><path class="cls-1" d="M50.33,17.8l-.63,0c-2.2-.11-3-.63-3.87-1.93-.58-.9-1.19-2.06-1.78-3.09a1.49,1.49,0,0,0-1.51-.86h-.46V15c0,1.69.18,1.85,1.74,2v.65H38V17c1.56-.14,1.77-.3,1.77-2V7c0-1.67-.18-1.83-1.69-2V4.4h5.45A5.93,5.93,0,0,1,47,5.13a3.11,3.11,0,0,1,1.37,2.71,3.58,3.58,0,0,1-2.57,3.37c.33.63,1.12,2,1.73,2.91a13.85,13.85,0,0,0,1.59,2.17,2.89,2.89,0,0,0,1.32.9Zm-7.56-6.65a3.1,3.1,0,0,0,2.07-.55,3,3,0,0,0,1-2.46c0-2.19-1.33-3-2.61-3a1.64,1.64,0,0,0-1,.2c-.14.12-.18.34-.18.81v5Z"/><path class="cls-1" d="M51.14,17.61V17c1.56-.14,1.74-.26,1.74-2V7c0-1.72-.18-1.84-1.74-2V4.4H57v.65c-1.56.15-1.73.27-1.73,2V15c0,1.73.17,1.85,1.73,2v.65Z"/><path class="cls-1" d="M65.36,17.61V17c1.22-.18,1.37-.4,1.06-1.26-.22-.67-.57-1.62-.93-2.6h-4c-.26.73-.55,1.53-.79,2.34-.35,1.1-.25,1.34,1.24,1.52v.65H57.4V17c1.32-.16,1.58-.36,2.27-2.11L63.86,4.34l.89-.24c1.28,3.53,2.56,7.19,3.89,10.69.67,1.79.93,2,2.23,2.17v.65ZM63.53,7.43h0c-.61,1.57-1.16,3.15-1.72,4.68h3.39Z"/><path class="cls-1" d="M85.91,5.05c-1.1.06-1.55.33-1.65,1.24a26.39,26.39,0,0,0-.16,3.4v8.13h-.85L74.71,7.49h0v4.76a31.32,31.32,0,0,0,.14,3.35c.1,1,.51,1.28,2,1.36v.65h-4.9V17c1.14-.08,1.63-.38,1.71-1.3a25.82,25.82,0,0,0,.18-3.41V7.94c0-1.4,0-1.67-.4-2.13a2.16,2.16,0,0,0-1.75-.76V4.4h3.48l8,9.39h.06V9.69c0-1.81-.1-2.77-.14-3.36-.1-.89-.55-1.2-2-1.28V4.4h4.9Z"/><path class="cls-1" d="M110.7.87c-1.55.1-2.2.59-2.31,1.6a25.16,25.16,0,0,0-.21,4V9.13c0,3-.46,5.31-2,6.94a6.89,6.89,0,0,1-5,1.92,7.42,7.42,0,0,1-4.6-1.35c-1.58-1.22-2.31-3.23-2.31-6.4V3.71c0-2.49-.24-2.65-2.3-2.84V0h7.72V.87c-2,.16-2.27.35-2.27,2.84v6c0,4.17,1.54,6.59,4.66,6.59,3.47,0,4.79-2.74,4.79-7.27V6.45a24.47,24.47,0,0,0-.24-4c-.14-1-.76-1.44-2.63-1.57V0h6.67Z"/><path class="cls-1" d="M125,5.05c-1.1.06-1.54.33-1.65,1.24a26.39,26.39,0,0,0-.16,3.4v8.13h-.85L113.76,7.49h0v4.76a31.32,31.32,0,0,0,.14,3.35c.1,1,.51,1.28,2,1.36v.65h-4.89V17c1.13-.08,1.62-.38,1.7-1.3a23.6,23.6,0,0,0,.19-3.41V7.94c0-1.4,0-1.67-.41-2.13a2.15,2.15,0,0,0-1.75-.76V4.4h3.48l8,9.39h.06V9.69c0-1.81-.1-2.77-.14-3.36-.11-.89-.55-1.2-2-1.28V4.4H125Z"/><path class="cls-1" d="M126.12,17.61V17c1.56-.14,1.74-.26,1.74-2V7c0-1.72-.18-1.84-1.74-2V4.4H132v.65c-1.57.15-1.73.27-1.73,2V15c0,1.73.16,1.85,1.73,2v.65Z"/><path class="cls-1" d="M146.91,5.07c-1.34.15-1.67.37-2.48,2.28-.61,1.48-2.58,6.3-4.15,10.49h-.87C138,14.12,136.22,9.4,135.24,7c-.61-1.54-.93-1.78-2.17-1.91V4.4h5.67v.67c-1.47.19-1.49.39-1.18,1.28.57,1.57,2.11,5.61,3.09,8.09h.06c1.08-2.8,2.19-5.73,2.78-7.6.43-1.32.39-1.56-1.28-1.77V4.4h4.7Z"/><path class="cls-1" d="M158.55,14.3c-.12.83-.53,2.7-.71,3.31H147.68V17c1.76-.14,1.95-.28,1.95-2V7.07c0-1.79-.19-1.89-1.69-2V4.4h9.39c0,.41.12,1.81.2,3l-.69.1a4.2,4.2,0,0,0-.75-1.75c-.33-.4-.87-.54-2.13-.54h-1.2c-.71,0-.78,0-.78.69v4.45h1.57c1.79,0,2-.12,2.26-1.55h.67v4h-.67c-.27-1.45-.49-1.55-2.24-1.55H152v3.62c0,1,.11,1.46.49,1.67a5,5,0,0,0,1.95.22c1.24,0,1.89-.14,2.36-.67a6.88,6.88,0,0,0,1.1-1.95Z"/><path class="cls-1" d="M171.92,17.8l-.63,0c-2.2-.11-3-.63-3.86-1.93-.59-.9-1.2-2.06-1.79-3.09a1.48,1.48,0,0,0-1.5-.86h-.47V15c0,1.69.18,1.85,1.75,2v.65h-5.84V17c1.57-.14,1.77-.3,1.77-2V7c0-1.67-.18-1.83-1.69-2V4.4h5.45a6,6,0,0,1,3.5.73A3.12,3.12,0,0,1,170,7.84a3.58,3.58,0,0,1-2.56,3.37c.32.63,1.12,2,1.73,2.91a14,14,0,0,0,1.58,2.17,2.89,2.89,0,0,0,1.32.9Zm-7.56-6.65a3.1,3.1,0,0,0,2.07-.55,3,3,0,0,0,1-2.46c0-2.19-1.32-3-2.6-3a1.66,1.66,0,0,0-1,.2c-.14.12-.18.34-.18.81v5Z"/><path class="cls-1" d="M180.05,7.61c-.39-1.28-1.08-2.74-2.77-2.74a2,2,0,0,0-2.09,2.07c0,1.26.83,1.93,2.56,2.81,1.93.95,3.56,2,3.56,4.14s-1.91,4-4.8,4a6.89,6.89,0,0,1-2-.29,9.2,9.2,0,0,1-1.16-.44,24.69,24.69,0,0,1-.59-3.34l.69-.2c.37,1.28,1.47,3.48,3.46,3.48a2.08,2.08,0,0,0,2.19-2.26c0-1.3-1-2-2.5-2.87-1.81-.91-3.47-2-3.47-4.06s1.68-3.84,4.49-3.84a8.17,8.17,0,0,1,2.72.51c.08.73.21,1.58.39,2.86Z"/><path class="cls-1" d="M182.5,17.61V17c1.57-.14,1.75-.26,1.75-2V7c0-1.72-.18-1.84-1.75-2V4.4h5.84v.65c-1.57.15-1.73.27-1.73,2V15c0,1.73.16,1.85,1.73,2v.65Z"/><path class="cls-1" d="M200.79,7.76a4.51,4.51,0,0,0-.81-2c-.34-.4-.79-.54-2.11-.54h-1.1V15c0,1.67.18,1.83,2,2v.65h-6.34V17c1.77-.14,1.95-.28,1.95-2V5.22h-.89c-1.69,0-2.07.2-2.36.59a5,5,0,0,0-.77,2h-.69c.08-1.41.2-2.83.24-3.88h.47c.3.46.57.5,1.14.5h8.13a1.24,1.24,0,0,0,1.11-.5h.47c0,.87.1,2.56.21,3.82Z"/><path class="cls-1" d="M215.38,5.05c-1.32.15-1.66.47-2.43,1.67s-1.41,2.3-2.4,4.17a2.25,2.25,0,0,0-.35,1.34v2.68c0,1.79.16,1.91,2,2.05v.65h-6.28V17c1.75-.12,1.93-.26,1.93-2.05V12.49a2.13,2.13,0,0,0-.32-1.16c-.61-1.15-1.34-2.5-2.52-4.55-.77-1.36-1.08-1.58-2.24-1.73V4.4h5.47v.65c-1.38.19-1.34.43-1,1.14.76,1.51,1.65,3.07,2.48,4.57.63-1.22,1.69-3.17,2.22-4.41.37-.89.32-1.11-1.2-1.3V4.4h4.63Z"/><polygon class="cls-1" points="0 29.76 0 29.28 55.74 29.28 55.74 29.76 0 29.76 0 29.76"/><polygon class="cls-1" points="159.47 29.76 159.47 29.28 205.77 29.28 205.77 29.76 159.47 29.76 159.47 29.76"/><path class="cls-1" d="M62.66,24.58v7.74H60.85V24.58Z"/><path class="cls-1" d="M72,32.32H70.33V29.1a4.54,4.54,0,0,0,0-.8.63.63,0,0,0-.22-.36.65.65,0,0,0-.44-.15c-.59,0-.89.43-.89,1.31v3.22H67V26.59h1.57v1a2.2,2.2,0,0,1,.77-.89,1.77,1.77,0,0,1,.82-.2,1.93,1.93,0,0,1,1.32.44,2.29,2.29,0,0,1,.5,1.73Z"/><path class="cls-1" d="M81.19,24.58v7.74H79.63v-.9a1.77,1.77,0,0,1-1.58,1,1.74,1.74,0,0,1-1.5-.78A3.68,3.68,0,0,1,76,29.52a4,4,0,0,1,.55-2.24,1.81,1.81,0,0,1,1.59-.81,1.61,1.61,0,0,1,1.41.72V24.58ZM79.55,29c0-.9-.28-1.35-.82-1.35s-1,.63-1,1.9.3,1.7.91,1.7a.77.77,0,0,0,.62-.31,1.26,1.26,0,0,0,.27-.87Z"/><path class="cls-1" d="M87.17,24.42v1.69H85.48V24.42Zm0,2.17v5.73H85.48V26.59Z"/><path class="cls-1" d="M96.46,32.32H94.82a4.33,4.33,0,0,1-.08-.9,2.29,2.29,0,0,1-.86.81,2.16,2.16,0,0,1-1,.21,1.91,1.91,0,0,1-1.3-.44,1.48,1.48,0,0,1-.49-1.17,1.79,1.79,0,0,1,.29-1,1.89,1.89,0,0,1,.92-.71,8.93,8.93,0,0,1,2.34-.38v-.33a.73.73,0,0,0-.83-.83.87.87,0,0,0-1,.83l-1.56-.15a1.76,1.76,0,0,1,.92-1.38A3.73,3.73,0,0,1,94,26.47a4.36,4.36,0,0,1,1.1.14,1.73,1.73,0,0,1,.8.41,1.27,1.27,0,0,1,.39.57,3.63,3.63,0,0,1,.11,1.06v2.6A3.94,3.94,0,0,0,96.46,32.32Zm-1.79-2.75c-1.18.12-1.77.48-1.77,1.07a.78.78,0,0,0,.18.52.67.67,0,0,0,.54.22,1,1,0,0,0,.75-.37,1.41,1.41,0,0,0,.3-.92Z"/><path class="cls-1" d="M105.63,32.32h-1.69V29.1a4.85,4.85,0,0,0,0-.8.65.65,0,0,0-.67-.51c-.59,0-.89.43-.89,1.31v3.22h-1.69V26.59h1.58v1a2.13,2.13,0,0,1,.77-.89,1.74,1.74,0,0,1,.82-.2,1.92,1.92,0,0,1,1.31.44,2.25,2.25,0,0,1,.5,1.73Z"/><path class="cls-1" d="M114.93,32.32h-1.64a3.74,3.74,0,0,1-.08-.9,2.36,2.36,0,0,1-.86.81,2.19,2.19,0,0,1-1,.21,1.89,1.89,0,0,1-1.3-.44,1.48,1.48,0,0,1-.5-1.17,1.88,1.88,0,0,1,.29-1,1.92,1.92,0,0,1,.93-.71,8.92,8.92,0,0,1,2.33-.38v-.33a.73.73,0,0,0-.83-.83.87.87,0,0,0-1,.83l-1.56-.15a1.77,1.77,0,0,1,.93-1.38,3.69,3.69,0,0,1,1.74-.41,4.44,4.44,0,0,1,1.11.14,1.73,1.73,0,0,1,.8.41,1.46,1.46,0,0,1,.39.57,3.72,3.72,0,0,1,.1,1.06v2.6A3.85,3.85,0,0,0,114.93,32.32Zm-1.8-2.75c-1.17.12-1.76.48-1.76,1.07a.78.78,0,0,0,.18.52.65.65,0,0,0,.53.22.92.92,0,0,0,.75-.37,1.41,1.41,0,0,0,.3-.92Z"/><path class="cls-1" d="M119.12,34.25V26.59h1.55v.84a1.53,1.53,0,0,1,1.51-1,1.88,1.88,0,0,1,1.53.75,3.43,3.43,0,0,1,.59,2.16,3.68,3.68,0,0,1-.6,2.29,1.9,1.9,0,0,1-1.56.77,1.47,1.47,0,0,1-1.38-.76v2.57Zm1.64-4.44a3.26,3.26,0,0,0,.07.84,1,1,0,0,0,.31.42.84.84,0,0,0,.52.18.79.79,0,0,0,.62-.35,3,3,0,0,0,.27-1.57c0-1.13-.3-1.69-.9-1.69a.82.82,0,0,0-.61.3,1.46,1.46,0,0,0-.28,1Z"/><path class="cls-1" d="M130.66,26.47a2.55,2.55,0,0,1,2,.86,3.16,3.16,0,0,1,.74,2.14,3.05,3.05,0,0,1-.77,2.12,2.59,2.59,0,0,1-2,.85,2.47,2.47,0,0,1-2-.84,3.16,3.16,0,0,1-.73-2.16,3.35,3.35,0,0,1,.33-1.55,2.74,2.74,0,0,1,.91-1A2.54,2.54,0,0,1,130.66,26.47Zm.05,1.11A.81.81,0,0,0,130,28a3,3,0,0,0-.24,1.47,3.41,3.41,0,0,0,.23,1.46.77.77,0,0,0,.73.44.81.81,0,0,0,.69-.37,2.66,2.66,0,0,0,.27-1.44,3.32,3.32,0,0,0-.24-1.53A.76.76,0,0,0,130.71,27.58Z"/><path class="cls-1" d="M137.41,32.32V24.58h1.68v7.74Z"/><path class="cls-1" d="M145.08,24.42v1.69h-1.69V24.42Zm0,2.17v5.73h-1.69V26.59Z"/><path class="cls-1" d="M153.65,28l-1.23.33a1,1,0,0,0-1.11-.77c-.57,0-.85.17-.85.51a.4.4,0,0,0,.15.33,2.2,2.2,0,0,0,.82.21,7.56,7.56,0,0,1,1.45.29,1.52,1.52,0,0,1,.74.58,1.67,1.67,0,0,1,.28,1,1.8,1.8,0,0,1-.67,1.44,2.89,2.89,0,0,1-1.88.56c-1.46,0-2.33-.57-2.62-1.7l1.43-.21c.11.51.54.77,1.27.77a1.48,1.48,0,0,0,.7-.15.44.44,0,0,0,.29-.41c0-.26-.21-.42-.64-.47a4.89,4.89,0,0,1-2.28-.66,1.56,1.56,0,0,1-.55-1.26,1.71,1.71,0,0,1,.64-1.35,2.72,2.72,0,0,1,1.78-.53,2.59,2.59,0,0,1,1.45.36A2.24,2.24,0,0,1,153.65,28Z"/><path class="cls-1" d="M211.38,25.84a3.09,3.09,0,1,1-3.07,3.09A3.08,3.08,0,0,1,211.38,25.84Zm0,5.62a2.54,2.54,0,1,0-2.52-2.53A2.54,2.54,0,0,0,211.38,31.46Zm-.59-.88h-.71V27.27h1.54c.2,0,1.26,0,1.26,1a.88.88,0,0,1-.62.88l.62,1.44h-.75l-.54-1.32h-.8Zm0-1.87h.73c.24,0,.62-.06.62-.46,0-.2-.13-.44-.56-.44h-.79Z"/></svg>