<svg xmlns="http://www.w3.org/2000/svg" xmlns:xlink="http://www.w3.org/1999/xlink"><defs><style>.cls-1{fill:none;stroke:#031e51;stroke-miterlimit:10;stroke-width:2px}</style><style>.cls-1{fill:none;stroke:#dbdad7;stroke-miterlimit:10;stroke-width:2px}</style><style>.cls-1{fill:none}.cls-2{clip-path:url(#clip-path)}.cls-3{fill:#fff}</style><clipPath id="brand-mark-clip-path"><path class="cls-1" d="M0 0h314.4v50H0z"/></clipPath><style>.cls-1{fill:none;stroke:#403f3b;stroke-miterlimit:10;stroke-width:2px}</style><style>.cls-1{fill:#fff}</style></defs><symbol viewBox="0 0 14.83 8.83" id="arrow_thick"><title>arrow_thick</title><g id="arrow_thick-Layer_2" data-name="Layer 2"><path class="cls-1" d="M14.13.71L7.42 7.42.71.71" id="arrow_thick-Layer_1-2" data-name="Layer 1"/></g></symbol><symbol viewBox="0 0 32.86 62.89" id="arrow_thin"><title>arrow_thin</title><g id="arrow_thin-Layer_2" data-name="Layer 2"><path class="cls-1" d="M.71.71l30.74 30.74L.71 62.18" id="arrow_thin-Layer_1-2" data-name="Layer 1"/></g></symbol><symbol viewBox="0 0 314.4 50" id="brand-mark"><title>Marian University</title><g id="brand-mark-Layer_2" data-name="Layer 2"><g id="brand-mark-Layer_1-2" data-name="Layer 1"><g class="cls-2" id="brand-mark-Artwork_2" data-name="Artwork 2"><g class="cls-2"><path class="cls-3" d="M22.21 25.71v-1.26c3.09-.32 3.24-.59 3.24-4.43l-.12-15.55h-.16l-9.06 21h-1L6.74 4.9h-.12l-.51 10.68a49.81 49.81 0 0 0 0 6.45c.12 1.82.95 2.14 3.6 2.37v1.3H.25v-1.3c2.25-.2 3-.83 3.24-2.29a70.79 70.79 0 0 0 .83-7.4l.59-7.95C5.28 2 5 1.62 1.52 1.3V0h7.59l8.11 18.2L25.49 0H33v1.3c-3.28.32-3.48.51-3.4 4.11L30 20c.08 3.84.24 4.11 3.48 4.43v1.26zM45.78 25.71v-.95c1.78-.27 2-.59 1.54-1.84-.33-1-.83-2.37-1.36-3.8h-5.9c-.38 1.1-.8 2.22-1.16 3.41-.5 1.6-.36 2 1.81 2.22v.95h-6.56v-.95c1.93-.27 2.31-.53 3.32-3.09l6.09-15.32 1.3-.34c1.9 5.16 3.77 10.5 5.7 15.6 1 2.61 1.36 2.94 3.26 3.17v.95zm-2.67-14.86H43c-.86 2.28-1.66 4.6-2.49 6.82h4.92zM73.46 26h-.92c-3.2-.15-4.39-.92-5.64-2.82-.86-1.3-1.78-3-2.64-4.51a2.07 2.07 0 0 0-2.17-1.25h-.68v4.48c0 2.43.27 2.7 2.55 2.91v.95h-8.54v-.95c2.29-.21 2.61-.44 2.61-2.91V10.26c0-2.43-.27-2.67-2.49-2.85v-1h8c2.43 0 3.92.3 5.1 1.07a4.53 4.53 0 0 1 2 3.95c0 2.58-1.69 4-3.74 4.9.47.92 1.6 2.91 2.49 4.24a20.16 20.16 0 0 0 2.34 3.17 4 4 0 0 0 1.93 1.34zm-11.07-9.7a4.62 4.62 0 0 0 3-.8 4.35 4.35 0 0 0 1.48-3.59c0-3.17-1.9-4.36-3.8-4.36a2.58 2.58 0 0 0-1.42.3c-.21.18-.27.51-.27 1.19v7.27zM74.64 25.71v-.95c2.28-.21 2.55-.39 2.55-2.91V10.31c0-2.52-.27-2.73-2.55-2.91v-1h8.51v1c-2.29.18-2.52.38-2.52 2.91v11.54c0 2.49.24 2.7 2.52 2.91v.95zM95.41 25.71v-.95c1.78-.27 2-.59 1.54-1.84-.33-1-.83-2.37-1.36-3.8h-5.9c-.39 1.1-.8 2.22-1.16 3.41-.5 1.6-.36 2 1.81 2.22v.95h-6.56v-.95c1.93-.27 2.31-.53 3.32-3.09l6.08-15.32L94.49 6c1.9 5.16 3.77 10.5 5.7 15.6 1 2.61 1.36 2.94 3.26 3.17v.95zm-2.67-14.86h-.09c-.86 2.28-1.66 4.6-2.49 6.82h4.92zM125.4 7.38c-1.6.09-2.26.51-2.4 1.84a37.44 37.44 0 0 0-.24 5V26h-1.25l-12.46-15.06H109v7a45.18 45.18 0 0 0 .21 4.87c.15 1.39.71 1.87 2.85 2v.95h-7.18v-.95c1.66-.12 2.37-.56 2.52-1.9a45.32 45.32 0 0 0 .24-5v-6.32c0-2 0-2.43-.59-3.11a3.1 3.1 0 0 0-2.55-1.1v-.95h5.1l11.7 13.67h.09v-5.93c0-2.67-.15-4.06-.21-4.93-.18-1.28-.8-1.75-2.94-1.87v-.94h7.15zM161.58 1.3c-2.26.12-3.2.83-3.4 2.33a42 42 0 0 0-.28 5.82v3.92c0 4.35-.67 7.71-2.93 10.09a10 10 0 0 1-7.24 2.85 11 11 0 0 1-6.76-2c-2.26-1.78-3.36-4.71-3.36-9.34V5.46c0-3.68-.36-3.88-3.36-4.15V0h11.31v1.3c-3 .24-3.32.47-3.32 4.15v8.75c0 6.09 2.26 9.61 6.76 9.61 5.06 0 7-4 7-10.6V9.45a40.65 40.65 0 0 0-.36-5.89c-.24-1.42-1.11-2.1-3.84-2.26V0h9.73zM182.4 7.38c-1.6.09-2.25.51-2.4 1.84a37.17 37.17 0 0 0-.24 5V26h-1.25l-12.45-15.06H166v7a46.4 46.4 0 0 0 .2 4.87c.15 1.39.71 1.87 2.85 2v.95h-7.18v-.95c1.66-.12 2.37-.56 2.52-1.9a45.32 45.32 0 0 0 .24-5v-6.32c0-2 0-2.43-.59-3.11a3.1 3.1 0 0 0-2.55-1.1v-.95h5.1l11.72 13.67h.09v-5.93c0-2.67-.15-4.06-.21-4.93-.18-1.28-.8-1.75-2.94-1.87v-.94h7.15zM184.09 25.71v-.95c2.28-.21 2.55-.39 2.55-2.91V10.31c0-2.52-.27-2.73-2.55-2.91v-1h8.51v1c-2.28.18-2.52.38-2.52 2.91v11.54c0 2.49.24 2.7 2.52 2.91v.95zM214.44 7.41c-2 .24-2.46.56-3.62 3.32-.92 2.17-3.77 9.17-6.05 15.31h-1.27c-2-5.43-4.69-12.31-6.08-15.84-.89-2.26-1.37-2.61-3.18-2.79v-1h8.28v1c-2.17.3-2.2.59-1.72 1.87.83 2.28 3.08 8.19 4.51 11.81h.06c1.6-4.09 3.2-8.37 4.07-11.1.65-1.93.56-2.28-1.84-2.58v-1h6.85zM231.43 20.88c-.18 1.19-.77 3.95-1 4.83h-14.87v-.95c2.58-.21 2.85-.42 2.85-2.91V10.31c0-2.61-.27-2.73-2.43-2.91v-1h13.68c0 .59.18 2.67.3 4.39l-1 .15a6.21 6.21 0 0 0-1.1-2.55c-.47-.56-1.28-.77-3.11-.77H223c-1 0-1.13.06-1.13 1v6.44h2.29c2.55 0 2.85-.18 3.23-2.22h1v5.87h-1c-.38-2.14-.68-2.26-3.23-2.26h-2.29v5.28c0 1.42.15 2.11.71 2.43a6.91 6.91 0 0 0 2.79.32c1.81 0 2.79-.21 3.47-1a9.87 9.87 0 0 0 1.6-2.85zM251 26h-.92c-3.2-.15-4.39-.92-5.64-2.82-.86-1.3-1.78-3-2.64-4.51a2.08 2.08 0 0 0-2.17-1.25h-.68v4.48c0 2.43.27 2.7 2.55 2.91v.95h-8.55v-.95c2.29-.21 2.61-.44 2.61-2.91V10.26c0-2.43-.27-2.67-2.49-2.85v-1h8c2.43 0 3.91.3 5.1 1.07a4.53 4.53 0 0 1 2 3.95c0 2.58-1.69 4-3.73 4.9.47.92 1.6 2.91 2.49 4.24a20 20 0 0 0 2.34 3.17 4 4 0 0 0 1.93 1.34zm-11.07-9.7a4.62 4.62 0 0 0 3-.8 4.35 4.35 0 0 0 1.48-3.59c0-3.17-1.9-4.36-3.8-4.36a2.59 2.59 0 0 0-1.43.3c-.21.18-.27.51-.27 1.19v7.27zM262.81 11.14c-.59-1.87-1.6-4-4.07-4a2.91 2.91 0 0 0-3 3c0 1.84 1.22 2.82 3.74 4.07 2.82 1.42 5.19 3 5.19 6.05 0 3.29-2.79 5.87-7 5.87a9.39 9.39 0 0 1-2.94-.44 10.6 10.6 0 0 1-1.69-.62 35.67 35.67 0 0 1-.86-4.87l1-.3c.54 1.87 2.14 5.07 5 5.07a3 3 0 0 0 3.2-3.29c0-1.9-1.42-3-3.65-4.15-2.64-1.37-5.07-2.94-5.07-6S255.16 6 259.22 6a13.31 13.31 0 0 1 4 .74c.12 1.1.3 2.34.53 4.21zM266.4 25.71v-.95c2.28-.21 2.55-.39 2.55-2.91V10.31c0-2.52-.27-2.73-2.55-2.91v-1h8.52v1c-2.29.18-2.52.38-2.52 2.91v11.54c0 2.49.24 2.7 2.52 2.91v.95zM293.1 11.32a7.11 7.11 0 0 0-1.16-2.91c-.54-.59-1.19-.77-3.12-.77h-1.6v14.21c0 2.46.27 2.7 3 2.91v.95h-9.26v-.95c2.55-.21 2.85-.44 2.85-2.91V7.64h-1.34c-2.43 0-3 .27-3.41.83a7.39 7.39 0 0 0-1.13 2.88h-1c.12-2 .3-4.12.36-5.67h.68c.44.68.83.74 1.66.74h11.87a1.84 1.84 0 0 0 1.63-.74h.68c0 1.28.15 3.74.3 5.58zM314.4 7.41c-2 .21-2.46.65-3.56 2.43s-2 3.32-3.47 6.05a3.42 3.42 0 0 0-.53 2v3.89c0 2.61.24 2.79 2.91 3v.95h-9.17v-.95c2.55-.18 2.82-.39 2.82-3v-3.55a3.12 3.12 0 0 0-.47-1.69c-.89-1.69-2-3.65-3.68-6.65-1.16-2-1.57-2.29-3.26-2.49v-1h8v1c-2 .27-2 .62-1.43 1.66 1.13 2.17 2.41 4.45 3.62 6.65.95-1.78 2.49-4.6 3.23-6.41.56-1.31.5-1.66-1.72-1.9v-1h6.77zM0 42.73h81.36v.71H0zM232.78 42.73h67.58v.71h-67.58zM88.83 35.88h2.64v11.29h-2.64zM102.65 47.17v-4.68a2.91 2.91 0 0 0-.15-1.37.93.93 0 0 0-.9-.54c-.85 0-1.3.68-1.3 1.92v4.69h-2.46v-8.36h2.29v1.41c.71-1.22 1.27-1.57 2.44-1.57a2.48 2.48 0 0 1 2 .81 3.61 3.61 0 0 1 .56 2.35v5.35zM118.46 47.17h-2.28v-1.3a2.41 2.41 0 0 1-2.29 1.47c-1.86 0-3-1.59-3-4.25 0-2.83 1.12-4.43 3.11-4.43a2.22 2.22 0 0 1 2 1v-3.78h2.39zm-2.39-4.84c0-1.31-.42-2-1.22-2s-1.39.91-1.39 2.76c0 1.59.46 2.47 1.3 2.47s1.3-.7 1.3-1.71zM127.2 38.12h-2.45v-2.46h2.45zm0 9.05h-2.45v-8.34h2.45zM138.35 47.17a4.44 4.44 0 0 1-.12-1.08 1.42 1.42 0 0 1 0-.22 2.91 2.91 0 0 1-2.67 1.47 2.34 2.34 0 0 1-2.61-2.34 2.6 2.6 0 0 1 1.86-2.52 12.57 12.57 0 0 1 3.32-.53v-.47a1.08 1.08 0 0 0-1.24-1.22 1.29 1.29 0 0 0-1.42 1.22l-2.27-.22a2.53 2.53 0 0 1 .95-1.76 4.86 4.86 0 0 1 3-.84 3.87 3.87 0 0 1 3 1c.36.46.46.89.46 2.13v3.77a4 4 0 0 0 .15 1.56zm-.22-4a5.6 5.6 0 0 0-1.49.29c-.73.24-1.1.66-1.1 1.27a1 1 0 0 0 1 1.07 1.69 1.69 0 0 0 1.54-1.86zM151.67 47.17v-4.68a2.91 2.91 0 0 0-.15-1.37.93.93 0 0 0-.9-.54c-.85 0-1.3.68-1.3 1.92v4.69h-2.45v-8.36h2.29v1.41c.71-1.22 1.27-1.57 2.44-1.57a2.48 2.48 0 0 1 2 .81 3.61 3.61 0 0 1 .56 2.35v5.35zM165.28 47.17a4.44 4.44 0 0 1-.12-1.08 1.42 1.42 0 0 1 0-.22 2.91 2.91 0 0 1-2.67 1.47 2.34 2.34 0 0 1-2.61-2.34 2.6 2.6 0 0 1 1.86-2.52 12.61 12.61 0 0 1 3.32-.53v-.47a1.08 1.08 0 0 0-1.24-1.22 1.29 1.29 0 0 0-1.42 1.22l-2.27-.22a2.53 2.53 0 0 1 .95-1.76 4.86 4.86 0 0 1 3-.84 3.87 3.87 0 0 1 3 1c.36.46.46.89.46 2.13v3.77a4.07 4.07 0 0 0 .15 1.56zm-.22-4a5.6 5.6 0 0 0-1.49.29c-.73.24-1.1.66-1.1 1.27a1 1 0 0 0 1 1.07 1.69 1.69 0 0 0 1.54-1.86zM173.79 38.83h2.27V40a2.2 2.2 0 0 1 2.2-1.39c1.93 0 3.08 1.61 3.08 4.3s-1.17 4.38-3.15 4.38a2.1 2.1 0 0 1-2-1.08V50h-2.39zm2.39 4.69c0 .91 0 1.18.24 1.49a1.36 1.36 0 0 0 1.07.61 1.13 1.13 0 0 0 1-.63 4.2 4.2 0 0 0 .34-2.06c0-1.74-.42-2.56-1.31-2.56s-1.3.71-1.3 1.91zM194.66 43a4 4 0 0 1-4 4.32 3.57 3.57 0 0 1-2.91-1.27 4.56 4.56 0 0 1-1-3.13c0-2.56 1.59-4.28 3.95-4.28s4 1.72 4 4.37m-5.4-.24c0 2.08.41 2.95 1.41 2.95s1.4-.82 1.4-2.66c0-2-.39-2.81-1.39-2.81s-1.42.74-1.42 2.52M200.45 35.88h2.45v11.29h-2.45zM211.64 38.12h-2.45v-2.46h2.45zm0 9.05h-2.45v-8.34h2.45zM222.36 41.33a1.49 1.49 0 0 0-1.63-1.13c-.76 0-1.23.29-1.23.74s.3.64 1.41.78a6.65 6.65 0 0 1 2.54.64 2.3 2.3 0 0 1 1.07 2.08c0 1.78-1.44 2.9-3.76 2.9a3.94 3.94 0 0 1-3-1 2.65 2.65 0 0 1-.81-1.47l2.08-.29c.21.74.8 1.12 1.83 1.12.88 0 1.47-.34 1.47-.83s-.27-.58-.93-.67a13.1 13.1 0 0 1-2.83-.62 2.37 2.37 0 0 1-1.3-2.17c0-1.68 1.39-2.74 3.54-2.74a3.08 3.08 0 0 1 3.32 2.18zM312.25 41.39a4.37 4.37 0 1 1-4.3-4.39 4.37 4.37 0 0 1 4.31 4.36m-7.16-2.5a3.75 3.75 0 1 0 2.85-1.24 3.69 3.69 0 0 0-2.85 1.24m4 5.05l-1-2.16h-1.4v2.16h-.7v-5.04h2.15a1.53 1.53 0 0 1 1.72 1.45 1.35 1.35 0 0 1-1 1.31l1.05 2.32zm-1.06-2.75c.64 0 1-.34 1-.89s-.35-.8-.92-.8h-1.4v1.69z"/></g></g></g></g></symbol><symbol viewBox="0 0 29.7 29.7" id="close"><title>Close</title><g id="close-Layer_2" data-name="Layer 2"><path class="cls-1" d="M28.99.71L.71 28.99m28.28 0L.71.71" id="close-Layer_1-2" data-name="Layer 1"/></g></symbol><symbol viewBox="0 0 20.98 14.04" id="email"><title>email</title><g id="email-Layer_2" data-name="Layer 2"><g id="email-Layer_1-2" data-name="Layer 1"><path class="cls-1" d="M20.5 3.17l-9.31 4.7a1.55 1.55 0 0 1-1.4 0L.48 3.17a.33.33 0 0 0-.48.29v9.22A1.36 1.36 0 0 0 1.36 14h18.26A1.36 1.36 0 0 0 21 12.68V3.46a.33.33 0 0 0-.5-.29z"/><path class="cls-1" d="M.76 1.74l9.12 4.61a1.35 1.35 0 0 0 1.22 0l9.12-4.61a.89.89 0 0 0 0-1.58 1.35 1.35 0 0 0-.6-.16H1.36a1.35 1.35 0 0 0-.64.16.89.89 0 0 0 .04 1.58z"/></g></g></symbol></svg>